<?xml version="1.0" encoding="UTF-8"?>
<mxfile host="app.diagrams.net" modified="2025-09-19T18:53:00.000Z" agent="5.0" etag="drawio" version="22.0.0" type="device">
  <diagram name="BMC AWS Complete Infrastructure" id="aws-infrastructure">
    <mxGraphModel dx="2000" dy="1200" grid="1" gridSize="10" guides="1" tooltips="1" connect="1" arrows="1" fold="1" page="1" pageScale="1" pageWidth="2000" pageHeight="1400" math="0" shadow="0">
      <root>
        <mxCell id="0" />
        <mxCell id="1" parent="0" />
        
        <!-- AWS Cloud Border -->
        <mxCell id="aws-cloud-border" value="" style="rounded=1;whiteSpace=wrap;html=1;fillColor=none;strokeColor=#FF9900;strokeWidth=3;dashed=1;" vertex="1" parent="1">
          <mxGeometry x="40" y="80" width="1920" height="1280" as="geometry" />
        </mxCell>
        
        <!-- AWS Cloud Label -->
        <mxCell id="aws-cloud-label" value="Amazon Web Services Cloud" style="text;html=1;strokeColor=none;fillColor=none;align=left;verticalAlign=top;whiteSpace=wrap;rounded=0;fontSize=16;fontStyle=1;fontColor=#FF9900;" vertex="1" parent="1">
          <mxGeometry x="60" y="90" width="200" height="30" as="geometry" />
        </mxCell>
        
        <!-- Region -->
        <mxCell id="region-border" value="" style="rounded=1;whiteSpace=wrap;html=1;fillColor=none;strokeColor=#147DF5;strokeWidth=2;dashed=1;" vertex="1" parent="1">
          <mxGeometry x="80" y="140" width="1840" height="1180" as="geometry" />
        </mxCell>
        
        <mxCell id="region-label" value="US East 1 (N. Virginia)" style="text;html=1;strokeColor=none;fillColor=none;align=left;verticalAlign=top;whiteSpace=wrap;rounded=0;fontSize=14;fontStyle=1;fontColor=#147DF5;" vertex="1" parent="1">
          <mxGeometry x="100" y="150" width="180" height="25" as="geometry" />
        </mxCell>
        
        <!-- VPC -->
        <mxCell id="vpc-border" value="" style="rounded=1;whiteSpace=wrap;html=1;fillColor=#E8F4FD;strokeColor=#147DF5;strokeWidth=2;" vertex="1" parent="1">
          <mxGeometry x="120" y="200" width="1760" height="1080" as="geometry" />
        </mxCell>
        
        <mxCell id="vpc-label" value="VPC BMC&#10;10.0.0.0/16" style="text;html=1;strokeColor=none;fillColor=none;align=left;verticalAlign=top;whiteSpace=wrap;rounded=0;fontSize=14;fontStyle=1;fontColor=#147DF5;" vertex="1" parent="1">
          <mxGeometry x="140" y="210" width="120" height="40" as="geometry" />
        </mxCell>
        
        <!-- Internet Gateway -->
        <mxCell id="igw" value="" style="sketch=0;outlineConnect=0;fontColor=#232F3E;gradientColor=none;fillColor=#4D27AA;strokeColor=none;dashed=0;verticalLabelPosition=bottom;verticalAlign=top;align=center;html=1;fontSize=12;fontStyle=0;aspect=fixed;pointerEvents=1;shape=mxgraph.aws4.internet_gateway;" vertex="1" parent="1">
          <mxGeometry x="980" y="120" width="40" height="40" as="geometry" />
        </mxCell>
        
        <mxCell id="igw-label" value="Internet Gateway" style="text;html=1;strokeColor=none;fillColor=none;align=center;verticalAlign=middle;whiteSpace=wrap;rounded=0;fontSize=10;" vertex="1" parent="1">
          <mxGeometry x="940" y="165" width="120" height="20" as="geometry" />
        </mxCell>
        
        <!-- Availability Zone A -->
        <mxCell id="az-a-border" value="" style="rounded=1;whiteSpace=wrap;html=1;fillColor=#FFF2CC;strokeColor=#D6B656;strokeWidth=1;dashed=1;" vertex="1" parent="1">
          <mxGeometry x="160" y="280" width="840" height="960" as="geometry" />
        </mxCell>
        
        <mxCell id="az-a-label" value="Availability Zone A (us-east-1a)" style="text;html=1;strokeColor=none;fillColor=none;align=left;verticalAlign=top;whiteSpace=wrap;rounded=0;fontSize=12;fontStyle=1;fontColor=#D6B656;" vertex="1" parent="1">
          <mxGeometry x="180" y="290" width="200" height="25" as="geometry" />
        </mxCell>
        
        <!-- Availability Zone B -->
        <mxCell id="az-b-border" value="" style="rounded=1;whiteSpace=wrap;html=1;fillColor=#FFF2CC;strokeColor=#D6B656;strokeWidth=1;dashed=1;" vertex="1" parent="1">
          <mxGeometry x="1040" y="280" width="800" height="960" as="geometry" />
        </mxCell>
        
        <mxCell id="az-b-label" value="Availability Zone B (us-east-1b)" style="text;html=1;strokeColor=none;fillColor=none;align=left;verticalAlign=top;whiteSpace=wrap;rounded=0;fontSize=12;fontStyle=1;fontColor=#D6B656;" vertex="1" parent="1">
          <mxGeometry x="1060" y="290" width="200" height="25" as="geometry" />
        </mxCell>
        
        <!-- Public Subnet AZ-A -->
        <mxCell id="public-subnet-a" value="" style="rounded=1;whiteSpace=wrap;html=1;fillColor=#D5E8D4;strokeColor=#82B366;strokeWidth=1;" vertex="1" parent="1">
          <mxGeometry x="200" y="340" width="360" height="180" as="geometry" />
        </mxCell>
        
        <mxCell id="public-subnet-a-label" value="Public Subnet A&#10;10.0.1.0/24" style="text;html=1;strokeColor=none;fillColor=none;align=left;verticalAlign=top;whiteSpace=wrap;rounded=0;fontSize=11;fontStyle=1;fontColor=#82B366;" vertex="1" parent="1">
          <mxGeometry x="220" y="350" width="120" height="35" as="geometry" />
        </mxCell>
        
        <!-- Public Subnet AZ-B -->
        <mxCell id="public-subnet-b" value="" style="rounded=1;whiteSpace=wrap;html=1;fillColor=#D5E8D4;strokeColor=#82B366;strokeWidth=1;" vertex="1" parent="1">
          <mxGeometry x="1080" y="340" width="360" height="180" as="geometry" />
        </mxCell>
        
        <mxCell id="public-subnet-b-label" value="Public Subnet B&#10;10.0.2.0/24" style="text;html=1;strokeColor=none;fillColor=none;align=left;verticalAlign=top;whiteSpace=wrap;rounded=0;fontSize=11;fontStyle=1;fontColor=#82B366;" vertex="1" parent="1">
          <mxGeometry x="1100" y="350" width="120" height="35" as="geometry" />
        </mxCell>
        
        <!-- NAT Gateway A -->
        <mxCell id="nat-gw-a" value="" style="sketch=0;outlineConnect=0;fontColor=#232F3E;gradientColor=none;fillColor=#4D27AA;strokeColor=none;dashed=0;verticalLabelPosition=bottom;verticalAlign=top;align=center;html=1;fontSize=12;fontStyle=0;aspect=fixed;pointerEvents=1;shape=mxgraph.aws4.nat_gateway;" vertex="1" parent="1">
          <mxGeometry x="240" y="420" width="40" height="40" as="geometry" />
        </mxCell>
        
        <mxCell id="nat-gw-a-label" value="NAT Gateway A" style="text;html=1;strokeColor=none;fillColor=none;align=center;verticalAlign=middle;whiteSpace=wrap;rounded=0;fontSize=9;" vertex="1" parent="1">
          <mxGeometry x="200" y="465" width="120" height="15" as="geometry" />
        </mxCell>
        
        <!-- NAT Gateway B -->
        <mxCell id="nat-gw-b" value="" style="sketch=0;outlineConnect=0;fontColor=#232F3E;gradientColor=none;fillColor=#4D27AA;strokeColor=none;dashed=0;verticalLabelPosition=bottom;verticalAlign=top;align=center;html=1;fontSize=12;fontStyle=0;aspect=fixed;pointerEvents=1;shape=mxgraph.aws4.nat_gateway;" vertex="1" parent="1">
          <mxGeometry x="1120" y="420" width="40" height="40" as="geometry" />
        </mxCell>
        
        <mxCell id="nat-gw-b-label" value="NAT Gateway B" style="text;html=1;strokeColor=none;fillColor=none;align=center;verticalAlign=middle;whiteSpace=wrap;rounded=0;fontSize=9;" vertex="1" parent="1">
          <mxGeometry x="1080" y="465" width="120" height="15" as="geometry" />
        </mxCell>
        
        <!-- Application Load Balancer -->
        <mxCell id="alb" value="" style="sketch=0;outlineConnect=0;fontColor=#232F3E;gradientColor=none;fillColor=#F58534;strokeColor=none;dashed=0;verticalLabelPosition=bottom;verticalAlign=top;align=center;html=1;fontSize=12;fontStyle=0;aspect=fixed;pointerEvents=1;shape=mxgraph.aws4.application_load_balancer;" vertex="1" parent="1">
          <mxGeometry x="400" y="420" width="40" height="40" as="geometry" />
        </mxCell>
        
        <mxCell id="alb-label" value="Application&#10;Load Balancer" style="text;html=1;strokeColor=none;fillColor=none;align=center;verticalAlign=middle;whiteSpace=wrap;rounded=0;fontSize=9;" vertex="1" parent="1">
          <mxGeometry x="360" y="465" width="120" height="25" as="geometry" />
        </mxCell>
        
        <!-- CloudFront -->
        <mxCell id="cloudfront" value="" style="sketch=0;outlineConnect=0;fontColor=#232F3E;gradientColor=none;fillColor=#F58534;strokeColor=none;dashed=0;verticalLabelPosition=bottom;verticalAlign=top;align=center;html=1;fontSize=12;fontStyle=0;aspect=fixed;pointerEvents=1;shape=mxgraph.aws4.cloudfront;" vertex="1" parent="1">
          <mxGeometry x="1280" y="420" width="40" height="40" as="geometry" />
        </mxCell>
        
        <mxCell id="cloudfront-label" value="CloudFront CDN" style="text;html=1;strokeColor=none;fillColor=none;align=center;verticalAlign=middle;whiteSpace=wrap;rounded=0;fontSize=9;" vertex="1" parent="1">
          <mxGeometry x="1240" y="465" width="120" height="15" as="geometry" />
        </mxCell>
        <!-- Private App Subnet AZ-A -->
        <mxCell id="private-app-a" value="" style="rounded=1;whiteSpace=wrap;html=1;fillColor=#FFE6CC;strokeColor=#D79B00;strokeWidth=1;" vertex="1" parent="1">
          <mxGeometry x="200" y="560" width="360" height="200" as="geometry" />
        </mxCell>
        
        <mxCell id="private-app-a-label" value="Private App Subnet A&#10;10.0.10.0/24" style="text;html=1;strokeColor=none;fillColor=none;align=left;verticalAlign=top;whiteSpace=wrap;rounded=0;fontSize=11;fontStyle=1;fontColor=#D79B00;" vertex="1" parent="1">
          <mxGeometry x="220" y="570" width="140" height="35" as="geometry" />
        </mxCell>
        
        <!-- Private App Subnet AZ-B -->
        <mxCell id="private-app-b" value="" style="rounded=1;whiteSpace=wrap;html=1;fillColor=#FFE6CC;strokeColor=#D79B00;strokeWidth=1;" vertex="1" parent="1">
          <mxGeometry x="1080" y="560" width="360" height="200" as="geometry" />
        </mxCell>
        
        <mxCell id="private-app-b-label" value="Private App Subnet B&#10;10.0.11.0/24" style="text;html=1;strokeColor=none;fillColor=none;align=left;verticalAlign=top;whiteSpace=wrap;rounded=0;fontSize=11;fontStyle=1;fontColor=#D79B00;" vertex="1" parent="1">
          <mxGeometry x="1100" y="570" width="140" height="35" as="geometry" />
        </mxCell>
        
        <!-- ECS Fargate Cluster -->
        <mxCell id="ecs-cluster" value="" style="sketch=0;outlineConnect=0;fontColor=#232F3E;gradientColor=none;fillColor=#F58534;strokeColor=none;dashed=0;verticalLabelPosition=bottom;verticalAlign=top;align=center;html=1;fontSize=12;fontStyle=0;aspect=fixed;pointerEvents=1;shape=mxgraph.aws4.ecs;" vertex="1" parent="1">
          <mxGeometry x="240" y="620" width="40" height="40" as="geometry" />
        </mxCell>
        
        <mxCell id="ecs-label" value="ECS Fargate&#10;Cluster" style="text;html=1;strokeColor=none;fillColor=none;align=center;verticalAlign=middle;whiteSpace=wrap;rounded=0;fontSize=9;" vertex="1" parent="1">
          <mxGeometry x="200" y="665" width="120" height="25" as="geometry" />
        </mxCell>
        
        <!-- Lambda Functions -->
        <mxCell id="lambda" value="" style="sketch=0;outlineConnect=0;fontColor=#232F3E;gradientColor=none;fillColor=#F58534;strokeColor=none;dashed=0;verticalLabelPosition=bottom;verticalAlign=top;align=center;html=1;fontSize=12;fontStyle=0;aspect=fixed;pointerEvents=1;shape=mxgraph.aws4.lambda;" vertex="1" parent="1">
          <mxGeometry x="360" y="620" width="40" height="40" as="geometry" />
        </mxCell>
        
        <mxCell id="lambda-label" value="Lambda&#10;Functions" style="text;html=1;strokeColor=none;fillColor=none;align=center;verticalAlign=middle;whiteSpace=wrap;rounded=0;fontSize=9;" vertex="1" parent="1">
          <mxGeometry x="320" y="665" width="120" height="25" as="geometry" />
        </mxCell>
        
        <!-- Step Functions -->
        <mxCell id="step-functions" value="" style="sketch=0;outlineConnect=0;fontColor=#232F3E;gradientColor=none;fillColor=#F58534;strokeColor=none;dashed=0;verticalLabelPosition=bottom;verticalAlign=top;align=center;html=1;fontSize=12;fontStyle=0;aspect=fixed;pointerEvents=1;shape=mxgraph.aws4.step_functions;" vertex="1" parent="1">
          <mxGeometry x="480" y="620" width="40" height="40" as="geometry" />
        </mxCell>
        
        <mxCell id="step-functions-label" value="Step Functions&#10;Workflows" style="text;html=1;strokeColor=none;fillColor=none;align=center;verticalAlign=middle;whiteSpace=wrap;rounded=0;fontSize=9;" vertex="1" parent="1">
          <mxGeometry x="440" y="665" width="120" height="25" as="geometry" />
        </mxCell>
        
        <!-- API Gateway -->
        <mxCell id="api-gateway" value="" style="sketch=0;outlineConnect=0;fontColor=#232F3E;gradientColor=none;fillColor=#F58534;strokeColor=none;dashed=0;verticalLabelPosition=bottom;verticalAlign=top;align=center;html=1;fontSize=12;fontStyle=0;aspect=fixed;pointerEvents=1;shape=mxgraph.aws4.api_gateway;" vertex="1" parent="1">
          <mxGeometry x="1120" y="620" width="40" height="40" as="geometry" />
        </mxCell>
        
        <mxCell id="api-gateway-label" value="API Gateway" style="text;html=1;strokeColor=none;fillColor=none;align=center;verticalAlign=middle;whiteSpace=wrap;rounded=0;fontSize=9;" vertex="1" parent="1">
          <mxGeometry x="1080" y="665" width="120" height="15" as="geometry" />
        </mxCell>
        
        <!-- EventBridge -->
        <mxCell id="eventbridge" value="" style="sketch=0;outlineConnect=0;fontColor=#232F3E;gradientColor=none;fillColor=#F58534;strokeColor=none;dashed=0;verticalLabelPosition=bottom;verticalAlign=top;align=center;html=1;fontSize=12;fontStyle=0;aspect=fixed;pointerEvents=1;shape=mxgraph.aws4.eventbridge;" vertex="1" parent="1">
          <mxGeometry x="1240" y="620" width="40" height="40" as="geometry" />
        </mxCell>
        
        <mxCell id="eventbridge-label" value="EventBridge" style="text;html=1;strokeColor=none;fillColor=none;align=center;verticalAlign=middle;whiteSpace=wrap;rounded=0;fontSize=9;" vertex="1" parent="1">
          <mxGeometry x="1200" y="665" width="120" height="15" as="geometry" />
        </mxCell>
        
        <!-- SQS -->
        <mxCell id="sqs" value="" style="sketch=0;outlineConnect=0;fontColor=#232F3E;gradientColor=none;fillColor=#F58534;strokeColor=none;dashed=0;verticalLabelPosition=bottom;verticalAlign=top;align=center;html=1;fontSize=12;fontStyle=0;aspect=fixed;pointerEvents=1;shape=mxgraph.aws4.sqs;" vertex="1" parent="1">
          <mxGeometry x="1360" y="620" width="40" height="40" as="geometry" />
        </mxCell>
        
        <mxCell id="sqs-label" value="SQS Queues" style="text;html=1;strokeColor=none;fillColor=none;align=center;verticalAlign=middle;whiteSpace=wrap;rounded=0;fontSize=9;" vertex="1" parent="1">
          <mxGeometry x="1320" y="665" width="120" height="15" as="geometry" />
        </mxCell>
        <!-- Private Data Subnet AZ-A -->
        <mxCell id="private-data-a" value="" style="rounded=1;whiteSpace=wrap;html=1;fillColor=#F8CECC;strokeColor=#B85450;strokeWidth=1;" vertex="1" parent="1">
          <mxGeometry x="200" y="800" width="360" height="200" as="geometry" />
        </mxCell>
        
        <mxCell id="private-data-a-label" value="Private Data Subnet A&#10;10.0.20.0/24" style="text;html=1;strokeColor=none;fillColor=none;align=left;verticalAlign=top;whiteSpace=wrap;rounded=0;fontSize=11;fontStyle=1;fontColor=#B85450;" vertex="1" parent="1">
          <mxGeometry x="220" y="810" width="140" height="35" as="geometry" />
        </mxCell>
        
        <!-- Private Data Subnet AZ-B -->
        <mxCell id="private-data-b" value="" style="rounded=1;whiteSpace=wrap;html=1;fillColor=#F8CECC;strokeColor=#B85450;strokeWidth=1;" vertex="1" parent="1">
          <mxGeometry x="1080" y="800" width="360" height="200" as="geometry" />
        </mxCell>
        
        <mxCell id="private-data-b-label" value="Private Data Subnet B&#10;10.0.21.0/24" style="text;html=1;strokeColor=none;fillColor=none;align=left;verticalAlign=top;whiteSpace=wrap;rounded=0;fontSize=11;fontStyle=1;fontColor=#B85450;" vertex="1" parent="1">
          <mxGeometry x="1100" y="810" width="140" height="35" as="geometry" />
        </mxCell>
        
        <!-- RDS Primary -->
        <mxCell id="rds-primary" value="" style="sketch=0;outlineConnect=0;fontColor=#232F3E;gradientColor=none;fillColor=#3F48CC;strokeColor=none;dashed=0;verticalLabelPosition=bottom;verticalAlign=top;align=center;html=1;fontSize=12;fontStyle=0;aspect=fixed;pointerEvents=1;shape=mxgraph.aws4.rds;" vertex="1" parent="1">
          <mxGeometry x="240" y="860" width="40" height="40" as="geometry" />
        </mxCell>
        
        <mxCell id="rds-primary-label" value="RDS PostgreSQL&#10;Primary (60M Products)" style="text;html=1;strokeColor=none;fillColor=none;align=center;verticalAlign=middle;whiteSpace=wrap;rounded=0;fontSize=9;" vertex="1" parent="1">
          <mxGeometry x="180" y="905" width="160" height="25" as="geometry" />
        </mxCell>
        
        <!-- RDS Standby -->
        <mxCell id="rds-standby" value="" style="sketch=0;outlineConnect=0;fontColor=#232F3E;gradientColor=none;fillColor=#3F48CC;strokeColor=none;dashed=0;verticalLabelPosition=bottom;verticalAlign=top;align=center;html=1;fontSize=12;fontStyle=0;aspect=fixed;pointerEvents=1;shape=mxgraph.aws4.rds;" vertex="1" parent="1">
          <mxGeometry x="1120" y="860" width="40" height="40" as="geometry" />
        </mxCell>
        
        <mxCell id="rds-standby-label" value="RDS PostgreSQL&#10;Standby (Multi-AZ)" style="text;html=1;strokeColor=none;fillColor=none;align=center;verticalAlign=middle;whiteSpace=wrap;rounded=0;fontSize=9;" vertex="1" parent="1">
          <mxGeometry x="1060" y="905" width="160" height="25" as="geometry" />
        </mxCell>
        
        <!-- ElastiCache Redis -->
        <mxCell id="elasticache" value="" style="sketch=0;outlineConnect=0;fontColor=#232F3E;gradientColor=none;fillColor=#3F48CC;strokeColor=none;dashed=0;verticalLabelPosition=bottom;verticalAlign=top;align=center;html=1;fontSize=12;fontStyle=0;aspect=fixed;pointerEvents=1;shape=mxgraph.aws4.elasticache;" vertex="1" parent="1">
          <mxGeometry x="360" y="860" width="40" height="40" as="geometry" />
        </mxCell>
        
        <mxCell id="elasticache-label" value="ElastiCache Redis&#10;Product Cache (24h TTL)" style="text;html=1;strokeColor=none;fillColor=none;align=center;verticalAlign=middle;whiteSpace=wrap;rounded=0;fontSize=9;" vertex="1" parent="1">
          <mxGeometry x="300" y="905" width="160" height="25" as="geometry" />
        </mxCell>
        
        <!-- Redshift -->
        <mxCell id="redshift" value="" style="sketch=0;outlineConnect=0;fontColor=#232F3E;gradientColor=none;fillColor=#3F48CC;strokeColor=none;dashed=0;verticalLabelPosition=bottom;verticalAlign=top;align=center;html=1;fontSize=12;fontStyle=0;aspect=fixed;pointerEvents=1;shape=mxgraph.aws4.redshift;" vertex="1" parent="1">
          <mxGeometry x="1240" y="860" width="40" height="40" as="geometry" />
        </mxCell>
        
        <mxCell id="redshift-label" value="Redshift Cluster&#10;Data Warehouse" style="text;html=1;strokeColor=none;fillColor=none;align=center;verticalAlign=middle;whiteSpace=wrap;rounded=0;fontSize=9;" vertex="1" parent="1">
          <mxGeometry x="1180" y="905" width="160" height="25" as="geometry" />
        </mxCell>
        
        <!-- Elasticsearch -->
        <mxCell id="elasticsearch" value="" style="sketch=0;outlineConnect=0;fontColor=#232F3E;gradientColor=none;fillColor=#3F48CC;strokeColor=none;dashed=0;verticalLabelPosition=bottom;verticalAlign=top;align=center;html=1;fontSize=12;fontStyle=0;aspect=fixed;pointerEvents=1;shape=mxgraph.aws4.elasticsearch_service;" vertex="1" parent="1">
          <mxGeometry x="480" y="860" width="40" height="40" as="geometry" />
        </mxCell>
        
        <mxCell id="elasticsearch-label" value="Elasticsearch&#10;Product Search" style="text;html=1;strokeColor=none;fillColor=none;align=center;verticalAlign=middle;whiteSpace=wrap;rounded=0;fontSize=9;" vertex="1" parent="1">
          <mxGeometry x="420" y="905" width="160" height="25" as="geometry" />
        </mxCell>
        <!-- External Services Section -->
        <mxCell id="external-services-border" value="" style="rounded=1;whiteSpace=wrap;html=1;fillColor=#E1D5E7;strokeColor=#9673A6;strokeWidth=1;" vertex="1" parent="1">
          <mxGeometry x="200" y="1040" width="1240" height="160" as="geometry" />
        </mxCell>
        
        <mxCell id="external-services-label" value="External Services &amp; Storage" style="text;html=1;strokeColor=none;fillColor=none;align=left;verticalAlign=top;whiteSpace=wrap;rounded=0;fontSize=12;fontStyle=1;fontColor=#9673A6;" vertex="1" parent="1">
          <mxGeometry x="220" y="1050" width="180" height="25" as="geometry" />
        </mxCell>
        
        <!-- S3 Buckets -->
        <mxCell id="s3-documents" value="" style="sketch=0;outlineConnect=0;fontColor=#232F3E;gradientColor=none;fillColor=#7AA116;strokeColor=none;dashed=0;verticalLabelPosition=bottom;verticalAlign=top;align=center;html=1;fontSize=12;fontStyle=0;aspect=fixed;pointerEvents=1;shape=mxgraph.aws4.s3;" vertex="1" parent="1">
          <mxGeometry x="260" y="1100" width="40" height="40" as="geometry" />
        </mxCell>
        
        <mxCell id="s3-documents-label" value="S3 Documents&#10;Images/PDFs/Certificates" style="text;html=1;strokeColor=none;fillColor=none;align=center;verticalAlign=middle;whiteSpace=wrap;rounded=0;fontSize=9;" vertex="1" parent="1">
          <mxGeometry x="200" y="1145" width="160" height="25" as="geometry" />
        </mxCell>
        
        <!-- Textract -->
        <mxCell id="textract" value="" style="sketch=0;outlineConnect=0;fontColor=#232F3E;gradientColor=none;fillColor=#01A88D;strokeColor=none;dashed=0;verticalLabelPosition=bottom;verticalAlign=top;align=center;html=1;fontSize=12;fontStyle=0;aspect=fixed;pointerEvents=1;shape=mxgraph.aws4.textract;" vertex="1" parent="1">
          <mxGeometry x="420" y="1100" width="40" height="40" as="geometry" />
        </mxCell>
        
        <mxCell id="textract-label" value="Amazon Textract&#10;OCR Service (>95%)" style="text;html=1;strokeColor=none;fillColor=none;align=center;verticalAlign=middle;whiteSpace=wrap;rounded=0;fontSize=9;" vertex="1" parent="1">
          <mxGeometry x="360" y="1145" width="160" height="25" as="geometry" />
        </mxCell>
        
        <!-- SES -->
        <mxCell id="ses" value="" style="sketch=0;outlineConnect=0;fontColor=#232F3E;gradientColor=none;fillColor=#F58534;strokeColor=none;dashed=0;verticalLabelPosition=bottom;verticalAlign=top;align=center;html=1;fontSize=12;fontStyle=0;aspect=fixed;pointerEvents=1;shape=mxgraph.aws4.simple_email_service;" vertex="1" parent="1">
          <mxGeometry x="580" y="1100" width="40" height="40" as="geometry" />
        </mxCell>
        
        <mxCell id="ses-label" value="Amazon SES&#10;Email Service" style="text;html=1;strokeColor=none;fillColor=none;align=center;verticalAlign=middle;whiteSpace=wrap;rounded=0;fontSize=9;" vertex="1" parent="1">
          <mxGeometry x="520" y="1145" width="160" height="25" as="geometry" />
        </mxCell>
        
        <!-- Transfer Family -->
        <mxCell id="transfer-family" value="" style="sketch=0;outlineConnect=0;fontColor=#232F3E;gradientColor=none;fillColor=#4D27AA;strokeColor=none;dashed=0;verticalLabelPosition=bottom;verticalAlign=top;align=center;html=1;fontSize=12;fontStyle=0;aspect=fixed;pointerEvents=1;shape=mxgraph.aws4.transfer_family;" vertex="1" parent="1">
          <mxGeometry x="740" y="1100" width="40" height="40" as="geometry" />
        </mxCell>
        
        <mxCell id="transfer-family-label" value="Transfer Family&#10;SFTP Gateway" style="text;html=1;strokeColor=none;fillColor=none;align=center;verticalAlign=middle;whiteSpace=wrap;rounded=0;fontSize=9;" vertex="1" parent="1">
          <mxGeometry x="680" y="1145" width="160" height="25" as="geometry" />
        </mxCell>
        
        <!-- Cognito -->
        <mxCell id="cognito" value="" style="sketch=0;outlineConnect=0;fontColor=#232F3E;gradientColor=none;fillColor=#FF4F8B;strokeColor=none;dashed=0;verticalLabelPosition=bottom;verticalAlign=top;align=center;html=1;fontSize=12;fontStyle=0;aspect=fixed;pointerEvents=1;shape=mxgraph.aws4.cognito;" vertex="1" parent="1">
          <mxGeometry x="900" y="1100" width="40" height="40" as="geometry" />
        </mxCell>
        
        <mxCell id="cognito-label" value="Amazon Cognito&#10;Authentication" style="text;html=1;strokeColor=none;fillColor=none;align=center;verticalAlign=middle;whiteSpace=wrap;rounded=0;fontSize=9;" vertex="1" parent="1">
          <mxGeometry x="840" y="1145" width="160" height="25" as="geometry" />
        </mxCell>
        
        <!-- CloudWatch -->
        <mxCell id="cloudwatch" value="" style="sketch=0;outlineConnect=0;fontColor=#232F3E;gradientColor=none;fillColor=#759C3E;strokeColor=none;dashed=0;verticalLabelPosition=bottom;verticalAlign=top;align=center;html=1;fontSize=12;fontStyle=0;aspect=fixed;pointerEvents=1;shape=mxgraph.aws4.cloudwatch;" vertex="1" parent="1">
          <mxGeometry x="1060" y="1100" width="40" height="40" as="geometry" />
        </mxCell>
        
        <mxCell id="cloudwatch-label" value="CloudWatch&#10;Monitoring" style="text;html=1;strokeColor=none;fillColor=none;align=center;verticalAlign=middle;whiteSpace=wrap;rounded=0;fontSize=9;" vertex="1" parent="1">
          <mxGeometry x="1000" y="1145" width="160" height="25" as="geometry" />
        </mxCell>
        
        <!-- WAF -->
        <mxCell id="waf" value="" style="sketch=0;outlineConnect=0;fontColor=#232F3E;gradientColor=none;fillColor=#FF4F8B;strokeColor=none;dashed=0;verticalLabelPosition=bottom;verticalAlign=top;align=center;html=1;fontSize=12;fontStyle=0;aspect=fixed;pointerEvents=1;shape=mxgraph.aws4.waf;" vertex="1" parent="1">
          <mxGeometry x="1220" y="1100" width="40" height="40" as="geometry" />
        </mxCell>
        
        <mxCell id="waf-label" value="AWS WAF&#10;Web Firewall" style="text;html=1;strokeColor=none;fillColor=none;align=center;verticalAlign=middle;whiteSpace=wrap;rounded=0;fontSize=9;" vertex="1" parent="1">
          <mxGeometry x="1160" y="1145" width="160" height="25" as="geometry" />
        </mxCell>
        
        <!-- KMS -->
        <mxCell id="kms" value="" style="sketch=0;outlineConnect=0;fontColor=#232F3E;gradientColor=none;fillColor=#FF4F8B;strokeColor=none;dashed=0;verticalLabelPosition=bottom;verticalAlign=top;align=center;html=1;fontSize=12;fontStyle=0;aspect=fixed;pointerEvents=1;shape=mxgraph.aws4.key_management_service;" vertex="1" parent="1">
          <mxGeometry x="1380" y="1100" width="40" height="40" as="geometry" />
        </mxCell>
        
        <mxCell id="kms-label" value="AWS KMS&#10;Key Management" style="text;html=1;strokeColor=none;fillColor=none;align=center;verticalAlign=middle;whiteSpace=wrap;rounded=0;fontSize=9;" vertex="1" parent="1">
          <mxGeometry x="1320" y="1145" width="160" height="25" as="geometry" />
        </mxCell>
        
        <!-- Key Connections -->
        <mxCell id="conn-igw-alb" style="edgeStyle=orthogonalEdgeStyle;rounded=0;orthogonalLoop=1;jettySize=auto;html=1;strokeWidth=2;strokeColor=#147DF5;" edge="1" parent="1" source="igw" target="alb">
          <mxGeometry relative="1" as="geometry" />
        </mxCell>
        
        <mxCell id="conn-alb-ecs" style="edgeStyle=orthogonalEdgeStyle;rounded=0;orthogonalLoop=1;jettySize=auto;html=1;strokeWidth=2;strokeColor=#F58534;" edge="1" parent="1" source="alb" target="ecs-cluster">
          <mxGeometry relative="1" as="geometry" />
        </mxCell>
        
        <mxCell id="conn-ecs-rds" style="edgeStyle=orthogonalEdgeStyle;rounded=0;orthogonalLoop=1;jettySize=auto;html=1;strokeWidth=2;strokeColor=#3F48CC;" edge="1" parent="1" source="ecs-cluster" target="rds-primary">
          <mxGeometry relative="1" as="geometry" />
        </mxCell>
        
        <mxCell id="conn-rds-standby" style="edgeStyle=orthogonalEdgeStyle;rounded=0;orthogonalLoop=1;jettySize=auto;html=1;strokeWidth=2;strokeColor=#3F48CC;dashed=1;" edge="1" parent="1" source="rds-primary" target="rds-standby">
          <mxGeometry relative="1" as="geometry" />
        </mxCell>
        
        <mxCell id="conn-lambda-textract" style="edgeStyle=orthogonalEdgeStyle;rounded=0;orthogonalLoop=1;jettySize=auto;html=1;strokeWidth=2;strokeColor=#01A88D;" edge="1" parent="1" source="lambda" target="textract">
          <mxGeometry relative="1" as="geometry" />
        </mxCell>
        
      </root>
    </mxGraphModel>
  </diagram>
</mxfile>
